HIERARCHY
ROOT Hips
{
	OFFSET -0.001795 -0.223333 0.028219
	CHANNELS 6 Xposition Yposition Zposition Zrotation Yrotation Xrotation 
	JOINT LeftUpLeg
	{
		OFFSET 0.069520 -0.091406 -0.006815
		CHANNELS 3 Zrotation Yrotation Xrotation
		JOINT LeftLeg
		{
			OFFSET 0.034277 -0.375199 -0.004496
			CHANNELS 3 Zrotation Yrotation Xrotation
			JOINT LeftFoot
			{
				OFFSET -0.013596 -0.397961 -0.043693
				CHANNELS 3 Zrotation Yrotation Xrotation
				JOINT LeftToe
				{
					OFFSET 0.026358 -0.055791 0.119288
					CHANNELS 3 Zrotation Yrotation Xrotation
					End Site
					{
						OFFSET 0.000000 0.000000 0.000000
					}
				}
			}
		}
	}
	JOINT RightUpLeg
	{
		OFFSET -0.067670 -0.090522 -0.004320
		CHANNELS 3 Zrotation Yrotation Xrotation
		JOINT RightLeg
		{
			OFFSET -0.038290 -0.382569 -0.008850
			CHANNELS 3 Zrotation Yrotation Xrotation
			JOINT RightFoot
			{
				OFFSET 0.015774 -0.398415 -0.042312
				CHANNELS 3 Zrotation Yrotation Xrotation
				JOINT RightToe
				{
					OFFSET -0.025372 -0.048144 0.123348
					CHANNELS 3 Zrotation Yrotation Xrotation
					End Site
					{
						OFFSET 0.000000 0.000000 0.000000
					}
				}
			}
		}
	}
	JOINT Spine
	{
		OFFSET -0.002533 0.108963 -0.026696
		CHANNELS 3 Zrotation Yrotation Xrotation
		JOINT Spine1
		{
			OFFSET 0.005487 0.135180 0.001092
			CHANNELS 3 Zrotation Yrotation Xrotation
			JOINT Spine2
			{
				OFFSET 0.001457 0.052922 0.025425
				CHANNELS 3 Zrotation Yrotation Xrotation
				JOINT Neck
				{
					OFFSET -0.002778 0.213870 -0.042857
					CHANNELS 3 Zrotation Yrotation Xrotation
					JOINT Head
					{
						OFFSET 0.005152 0.064970 0.051349
						CHANNELS 3 Zrotation Yrotation Xrotation
						End Site
						{
							OFFSET 0.000000 0.000000 0.000000
						}
					}
				}
				JOINT LeftShoulder
				{
					OFFSET 0.078845 0.121749 -0.034090
					CHANNELS 3 Zrotation Yrotation Xrotation
					JOINT LeftArm
					{
						OFFSET 0.090977 0.030469 -0.008868
						CHANNELS 3 Zrotation Yrotation Xrotation
						JOINT LeftForeArm
						{
							OFFSET 0.259612 -0.012772 -0.027456
							CHANNELS 3 Zrotation Yrotation Xrotation
							JOINT LeftHand
							{
								OFFSET 0.249234 0.008986 -0.001171
								CHANNELS 3 Zrotation Yrotation Xrotation
								End Site
								{
									OFFSET 0.000000 0.000000 0.000000
								}
							}
						}
					}
				}
				JOINT RightShoulder
				{
					OFFSET -0.081759 0.118833 -0.038615
					CHANNELS 3 Zrotation Yrotation Xrotation
					JOINT RightArm
					{
						OFFSET -0.096012 0.032551 -0.009143
						CHANNELS 3 Zrotation Yrotation Xrotation
						JOINT RightForeArm
						{
							OFFSET -0.253742 -0.013329 -0.021401
							CHANNELS 3 Zrotation Yrotation Xrotation
							JOINT RightHand
							{
								OFFSET -0.255298 0.007772 -0.005559
								CHANNELS 3 Zrotation Yrotation Xrotation
								End Site
								{
									OFFSET 0.000000 0.000000 0.000000
								}
							}
						}
					}
				}
			}
		}
	}
}
MOTION
Frames: 5
Frame Time: 0.050000
0.000000 0.962500 0.000000 0.041722 -17.268129 16.288253 1.676696 -0.996033 -25.435273 3.988025 -0.736374 4.652753 -4.238054 -4.488693 12.319970 0.000000 0.000000 0.000000 -3.387128 1.393185 -13.585728 -1.000356 -0.056192 -2.841180 -2.156938 -11.707081 13.322762 0.000000 0.000000 0.000000 3.106061 -0.615500 7.363140 -6.035149 2.612289 -2.959154 2.481793 17.578414 10.234899 10.495546 -5.771104 -10.550256 0.000000 0.000000 0.000000 7.652338 5.693136 -0.430644 -46.069519 12.328310 -10.766799 -121.842618 -40.369863 66.135673 0.000000 0.000000 0.000000 4.340206 1.254797 0.778155 68.556658 5.167602 -2.708228 21.879615 55.732724 16.127245 0.000000 0.000000 0.000000 
-0.003549 0.961311 -0.002516 -0.529571 -17.086398 19.317286 2.742176 -0.788704 -26.168602 3.316541 -0.459050 0.936255 -5.794789 -6.019236 15.174441 0.000000 0.000000 0.000000 -0.812795 1.872571 -16.871888 -4.700657 0.048421 -3.787972 -3.064494 -13.662254 14.144681 0.000000 0.000000 0.000000 2.313158 -0.626144 9.718981 -5.047969 2.060102 -4.446433 0.927694 19.209070 8.516890 13.466305 -8.366194 -8.223741 0.000000 0.000000 0.000000 4.663949 4.051813 -0.514880 -44.563413 9.575067 -9.229139 -119.068404 -43.155828 65.506876 0.000000 0.000000 0.000000 4.931976 2.439761 1.509421 64.290708 9.428825 0.017706 17.291824 54.067890 13.348317 0.000000 0.000000 0.000000 
-0.005971 0.961645 -0.008259 -0.178174 -17.261172 20.056450 3.165588 -0.688746 -26.185194 2.932590 -0.379426 0.301430 -5.252599 -5.170341 15.347000 0.000000 0.000000 0.000000 -1.356400 1.923569 -17.404142 -3.809796 -0.155082 -6.643560 -1.798625 -12.020966 15.497703 0.000000 0.000000 0.000000 1.379794 -0.519739 12.133356 -4.356272 1.846251 -3.231143 -1.162040 19.258028 6.799937 14.964079 -9.281210 -8.555925 0.000000 0.000000 0.000000 1.867365 -2.040960 0.761454 -46.159426 1.401900 -6.411334 -110.087303 -53.814505 69.973144 0.000000 0.000000 0.000000 6.228017 8.647541 4.532365 61.041381 21.104042 6.053316 -5.049449 44.962201 1.354194 0.000000 0.000000 0.000000 
-0.007475 0.961517 -0.016329 0.514156 -17.001657 21.853717 3.317993 -0.614602 -28.952854 2.586892 -0.262784 -1.141627 -7.452846 -6.416289 20.616067 0.000000 0.000000 0.000000 -1.024084 2.373615 -20.493021 -5.088027 -0.072347 -5.710195 -2.009887 -13.203276 17.991111 0.000000 0.000000 0.000000 1.170904 -0.505714 14.737440 -3.818529 1.560238 -4.326313 -2.579843 18.663002 7.251682 16.860105 -9.524523 -11.871037 0.000000 0.000000 0.000000 -1.609453 -10.990859 3.228731 -45.220007 -8.248777 -2.605047 -88.161260 -67.491905 65.145738 0.000000 0.000000 0.000000 1.999304 16.448383 7.336356 57.263890 31.840531 11.359801 -15.619711 33.496366 -2.336101 0.000000 0.000000 0.000000 
-0.008184 0.960353 -0.025869 0.865914 -17.235355 22.723090 2.981961 -0.650299 -30.121754 3.189100 -0.339086 -0.939835 -7.188631 -6.185474 20.287686 0.000000 0.000000 0.000000 -1.476843 2.564922 -21.999409 -4.677114 -0.131771 -6.419709 -1.499794 -12.565764 18.394509 0.000000 0.000000 0.000000 -0.041176 -0.179195 18.376678 -2.657291 1.115673 -3.845247 -4.183672 17.271994 7.069251 17.803803 -9.315924 -14.425849 0.000000 0.000000 0.000000 -0.694002 -18.457730 6.006896 -45.156358 -25.824264 3.580305 -26.896235 -67.838272 19.116983 0.000000 0.000000 0.000000 -2.298413 24.388922 9.647339 47.407963 45.020374 14.933870 -18.566629 16.868692 -1.577105 0.000000 0.000000 0.000000 
